<svg width="233" height="48" viewBox="0 0 233 48" fill="none" xmlns="http://www.w3.org/2000/svg">
<g>
<path d="M5.00002 27.68C4.20002 27.68 3.66669 27.52 3.40002 27.2C3.13336 26.88 3.13336 26.56 3.40002 26.24C3.66669 25.92 4.20002 25.76 5.00002 25.76C4.33336 25.6 3.86669 25.3334 3.60002 24.96C3.36002 24.56 3.28002 24.1734 3.36002 23.8C3.46669 23.4 3.72002 23.0934 4.12002 22.88C4.54669 22.6667 5.09336 22.64 5.76002 22.8C5.41336 22.3467 5.30669 21.8667 5.44002 21.36C5.60002 20.8267 5.89336 20.3334 6.32002 19.88C6.74669 19.4267 7.24002 19.0667 7.80002 18.8C8.38669 18.5334 8.94669 18.4134 9.48002 18.44C10.0134 18.4667 10.44 18.7067 10.76 19.16C10.1467 18.3067 9.85336 17.6534 9.88002 17.2C9.93336 16.72 10.1867 16.52 10.64 16.6C11.12 16.68 11.68 17.1467 12.32 18C11.84 17.3867 11.64 16.8 11.72 16.24C11.8267 15.6534 12.1067 15.1867 12.56 14.84C13.0134 14.4667 13.52 14.2934 14.08 14.32C14.6667 14.3467 15.2 14.6667 15.68 15.28C15.28 14.8267 15.12 14.4134 15.2 14.04C15.28 13.6667 15.48 13.4267 15.8 13.32C16.1467 13.2134 16.52 13.32 16.92 13.64C16.6 13.2667 16.48 12.88 16.56 12.48C16.6667 12.08 16.88 11.7734 17.2 11.56C16.8534 11.3734 16.5867 11.1067 16.4 10.76C16.24 10.3867 16.1734 10.0134 16.2 9.64002C15.9334 9.61336 15.6934 9.50669 15.48 9.32002C15.2667 9.13336 15.1067 8.88002 15 8.56002C14.92 8.96002 14.6667 9.36002 14.24 9.76002C13.8134 10.1334 13.32 10.4534 12.76 10.72C12.2 10.96 11.6667 11.08 11.16 11.08C10.68 11.0534 10.3334 10.8534 10.12 10.48C10.12 11.2267 9.90669 11.7867 9.48002 12.16C9.08002 12.5067 8.60002 12.68 8.04002 12.68C7.48002 12.68 6.98669 12.5067 6.56002 12.16C6.16002 11.7867 5.96002 11.2267 5.96002 10.48C5.24002 10.4534 4.70669 10.3067 4.36002 10.04C4.01336 9.74669 3.84002 9.42669 3.84002 9.08002C3.86669 8.73336 4.06669 8.44002 4.44002 8.20002C4.81336 7.96002 5.36002 7.85336 6.08002 7.88002C5.46669 7.42669 5.12002 6.93336 5.04002 6.40002C4.98669 5.86669 5.10669 5.38669 5.40002 4.96002C5.72002 4.53336 6.14669 4.26669 6.68002 4.16002C7.21336 4.05336 7.78669 4.21336 8.40002 4.64002C8.08002 4.05336 8.02669 3.50669 8.24002 3.00002C8.45336 2.49336 8.81336 2.10669 9.32002 1.84002C9.82669 1.57336 10.3467 1.49336 10.88 1.60002C11.4134 1.68002 11.84 2.02669 12.16 2.64002C12.1067 1.97336 12.3334 1.45336 12.84 1.08002C13.3467 0.680023 13.9467 0.440023 14.64 0.360024C15.36 0.280023 16 0.38669 16.56 0.680022C17.1467 0.94669 17.48 1.41336 17.56 2.08002C17.64 1.20002 17.8534 0.640024 18.2 0.400023C18.5467 0.133357 18.8667 0.160023 19.16 0.480022C19.4534 0.800023 19.56 1.38669 19.48 2.24002C19.6667 1.62669 20.0134 1.22669 20.52 1.04002C21.0267 0.853357 21.5334 0.840023 22.04 1.00002C22.5734 1.16002 22.9867 1.46669 23.28 1.92002C23.6 2.34669 23.6534 2.88002 23.44 3.52002C24 2.77336 24.5334 2.40002 25.04 2.40002C25.5734 2.37336 25.8934 2.61336 26 3.12002C26.1334 3.60002 25.92 4.21336 25.36 4.96002C25.9734 4.58669 26.5067 4.42669 26.96 4.48002C27.4134 4.50669 27.7334 4.68002 27.92 5.00002C28.1067 5.29336 28.12 5.65336 27.96 6.08002C27.8 6.48002 27.4134 6.88002 26.8 7.28002C27.44 7.25336 27.92 7.46669 28.24 7.92002C28.5867 8.34669 28.76 8.86669 28.76 9.48002C28.7867 10.0667 28.64 10.6 28.32 11.08C28.0267 11.5334 27.56 11.76 26.92 11.76C27.4534 12.1067 27.72 12.5734 27.72 13.16C27.7467 13.7467 27.5867 14.3067 27.24 14.84C26.8934 15.3467 26.4534 15.72 25.92 15.96C25.3867 16.1734 24.8534 16.1067 24.32 15.76C24.6667 16.16 24.7867 16.5867 24.68 17.04C24.6 17.4934 24.3734 17.92 24 18.32C23.6534 18.6934 23.24 18.96 22.76 19.12C22.3067 19.28 21.88 19.28 21.48 19.12C21.7467 19.44 21.8534 19.8534 21.8 20.36C22.3867 20.3867 22.92 20.5734 23.4 20.92C23.9067 21.24 24.1334 21.72 24.08 22.36C24.08 21.56 24.2534 21.0267 24.6 20.76C24.9467 20.4667 25.2934 20.4667 25.64 20.76C25.9867 21.0267 26.16 21.56 26.16 22.36C26.6667 22.1467 27.12 22.1867 27.52 22.48C27.9467 22.7734 28.2667 23.1734 28.48 23.68C28.6934 24.1867 28.76 24.6934 28.68 25.2C28.6 25.68 28.3067 26.0267 27.8 26.24C28.12 26.64 28.2267 27.04 28.12 27.44C28.04 27.8134 27.84 28.1334 27.52 28.4C27.2 28.64 26.84 28.7734 26.44 28.8C26.04 28.8 25.68 28.6 25.36 28.2C25.36 28.7067 25.1734 29.1067 24.8 29.4C24.4267 29.72 23.96 29.9334 23.4 30.04C22.84 30.1467 22.28 30.1467 21.72 30.04C21.16 29.9334 20.6934 29.72 20.32 29.4C19.9467 29.1067 19.76 28.7067 19.76 28.2C19.76 28.84 19.56 29.32 19.16 29.64C18.7867 29.9867 18.3467 30.16 17.84 30.16C17.3334 30.16 16.88 29.9867 16.48 29.64C16.1067 29.32 15.92 28.84 15.92 28.2C15.92 29 15.6534 29.5867 15.12 29.96C14.5867 30.36 13.9734 30.56 13.28 30.56C12.5867 30.56 11.9734 30.36 11.44 29.96C10.9067 29.5867 10.64 29 10.64 28.2C10.64 28.84 10.4267 29.3067 10 29.6C9.60002 29.92 9.12002 30.08 8.56002 30.08C8.00002 30.08 7.50669 29.92 7.08002 29.6C6.68002 29.3067 6.48002 28.84 6.48002 28.2C6.48002 29.16 6.34669 29.7867 6.08002 30.08C5.81336 30.4 5.56002 30.36 5.32002 29.96C5.08002 29.56 4.97336 28.8 5.00002 27.68ZM41.8041 28.16C41.0841 28.16 40.5374 27.9067 40.1641 27.4C39.7908 26.8934 39.6041 26.3067 39.6041 25.64C39.6041 24.9467 39.7908 24.3467 40.1641 23.84C40.5374 23.3334 41.0841 23.08 41.8041 23.08C40.7908 23.08 40.1108 22.9067 39.7641 22.56C39.4174 22.2134 39.4174 21.8667 39.7641 21.52C40.1108 21.1734 40.7908 21 41.8041 21C41.0041 21 40.4041 20.8534 40.0041 20.56C39.6308 20.24 39.4441 19.88 39.4441 19.48C39.4441 19.08 39.6308 18.7334 40.0041 18.44C40.4041 18.1467 41.0041 18 41.8041 18C41.2974 18 40.8974 17.7867 40.6041 17.36C40.3108 16.9067 40.1108 16.36 40.0041 15.72C39.9241 15.08 39.9508 14.4667 40.0841 13.88C39.7908 13.7734 39.5641 13.56 39.4041 13.24C39.2174 13.64 38.8708 13.8934 38.3641 14C37.8574 14.1067 37.4174 13.9067 37.0441 13.4C36.9108 13.9334 36.6708 14.3067 36.3241 14.52C35.9774 14.7067 35.6041 14.76 35.2041 14.68C34.8308 14.5734 34.5241 14.36 34.2841 14.04C34.0708 13.6934 34.0174 13.2534 34.1241 12.72C33.6441 12.7734 33.2574 12.6134 32.9641 12.24C32.6708 11.8667 32.4974 11.44 32.4441 10.96C32.4174 10.4534 32.5108 10 32.7241 9.60002C32.9374 9.17336 33.2841 8.93336 33.7641 8.88002C33.3641 8.34669 33.2041 7.84002 33.2841 7.36002C33.3641 6.85336 33.5908 6.45336 33.9641 6.16002C34.3641 5.86669 34.8041 5.74669 35.2841 5.80002C35.7908 5.82669 36.2574 6.10669 36.6841 6.64002C36.2041 6.02669 35.9641 5.46669 35.9641 4.96002C35.9641 4.45336 36.1241 4.08002 36.4441 3.84002C36.7641 3.60002 37.1641 3.54669 37.6441 3.68002C38.1241 3.78669 38.6041 4.14669 39.0841 4.76002C38.7641 4.20002 38.7241 3.66669 38.9641 3.16002C39.2308 2.65336 39.6308 2.26669 40.1641 2.00002C40.6974 1.70669 41.2308 1.60002 41.7641 1.68002C42.3241 1.73336 42.7641 2.04002 43.0841 2.60002C43.0841 1.82669 43.2708 1.25336 43.6441 0.880022C44.0441 0.480022 44.4974 0.280023 45.0041 0.280023C45.5374 0.280023 46.0041 0.480022 46.4041 0.880022C46.8041 1.25336 47.0041 1.82669 47.0041 2.60002C46.9508 1.69336 47.1108 1.08002 47.4841 0.760024C47.8841 0.413357 48.2841 0.38669 48.6841 0.680022C49.1108 0.973357 49.3508 1.57336 49.4041 2.48002C50.0441 2.48002 50.5241 2.76002 50.8441 3.32002C51.1908 3.85336 51.3641 4.48002 51.3641 5.20002C51.3641 5.92002 51.1908 6.56002 50.8441 7.12002C50.5241 7.65336 50.0441 7.92002 49.4041 7.92002C50.4708 7.92002 51.1774 8.09336 51.5241 8.44002C51.8708 8.76002 51.8708 9.09336 51.5241 9.44002C51.1774 9.78669 50.4708 9.96002 49.4041 9.96002C50.0974 9.96002 50.6174 10.1734 50.9641 10.6C51.3108 11.0267 51.4841 11.52 51.4841 12.08C51.4841 12.6134 51.3108 13.0934 50.9641 13.52C50.6174 13.92 50.0974 14.12 49.4041 14.12C49.9641 14.12 50.4174 14.32 50.7641 14.72C51.1108 15.0934 51.3374 15.5734 51.4441 16.16C51.5508 16.72 51.5508 17.2934 51.4441 17.88C51.3374 18.44 51.1108 18.92 50.7641 19.32C50.4174 19.6934 49.9641 19.88 49.4041 19.88C50.2574 19.88 50.8174 20.0667 51.0841 20.44C51.3774 20.8134 51.3774 21.1867 51.0841 21.56C50.8174 21.9067 50.2574 22.08 49.4041 22.08C49.8841 22.08 50.2708 22.28 50.5641 22.68C50.8574 23.0534 51.0574 23.5334 51.1641 24.12C51.2708 24.68 51.2708 25.2534 51.1641 25.84C51.0574 26.4 50.8574 26.88 50.5641 27.28C50.2708 27.6534 49.8841 27.84 49.4041 27.84C49.4574 28.4534 49.2974 28.9334 48.9241 29.28C48.5774 29.6 48.1508 29.7867 47.6441 29.84C47.1374 29.8934 46.6708 29.7867 46.2441 29.52C45.8174 29.2534 45.5774 28.8134 45.5241 28.2C45.5241 28.8667 45.3241 29.36 44.9241 29.68C44.5508 30.0267 44.1108 30.2 43.6041 30.2C43.1241 30.2 42.6974 30.0267 42.3241 29.68C41.9508 29.36 41.7774 28.8534 41.8041 28.16ZM55.6297 31.76C55.1497 31.76 54.7897 31.4934 54.5497 30.96C54.3364 30.4267 54.2297 29.8134 54.2297 29.12C54.2297 28.4267 54.3364 27.8134 54.5497 27.28C54.7897 26.7467 55.1497 26.48 55.6297 26.48C55.123 26.48 54.7364 26.28 54.4697 25.88C54.2297 25.48 54.1097 25.0134 54.1097 24.48C54.1097 23.9467 54.2297 23.48 54.4697 23.08C54.7364 22.68 55.123 22.48 55.6297 22.48C55.0697 22.48 54.643 22.3467 54.3497 22.08C54.083 21.7867 53.9497 21.4667 53.9497 21.12C53.9497 20.7734 54.083 20.4667 54.3497 20.2C54.643 19.9067 55.0697 19.76 55.6297 19.76C55.043 19.76 54.643 19.6267 54.4297 19.36C54.243 19.0934 54.243 18.8267 54.4297 18.56C54.643 18.2934 55.043 18.16 55.6297 18.16C55.203 18.16 54.8697 17.9734 54.6297 17.6C54.4164 17.2 54.3097 16.7467 54.3097 16.24C54.3097 15.7334 54.4164 15.2934 54.6297 14.92C54.8697 14.52 55.203 14.32 55.6297 14.32C55.0697 14.32 54.643 14.12 54.3497 13.72C54.083 13.32 53.9497 12.8534 53.9497 12.32C53.9497 11.7867 54.083 11.32 54.3497 10.92C54.643 10.52 55.0697 10.32 55.6297 10.32C55.3097 9.86669 55.1764 9.50669 55.2297 9.24002C55.3097 8.97336 55.483 8.85336 55.7497 8.88002C56.043 8.90669 56.3497 9.14669 56.6697 9.60002C56.6697 9.01336 56.8297 8.62669 57.1497 8.44002C57.4964 8.25336 57.843 8.25336 58.1897 8.44002C58.5364 8.62669 58.7097 9.01336 58.7097 9.60002C58.763 9.20002 58.9897 8.92002 59.3897 8.76002C59.7897 8.60002 60.243 8.54669 60.7497 8.60002C61.283 8.65336 61.723 8.80002 62.0697 9.04002C62.443 9.28002 62.6164 9.58669 62.5897 9.96002C62.723 9.48002 62.9764 9.17336 63.3497 9.04002C63.7497 8.90669 64.1364 8.93336 64.5097 9.12002C64.883 9.28002 65.1097 9.54669 65.1897 9.92002C65.3764 9.52002 65.723 9.20002 66.2297 8.96002C66.763 8.69336 67.2964 8.56002 67.8297 8.56002C68.363 8.56002 68.7097 8.78669 68.8697 9.24002C68.923 8.65336 69.123 8.22669 69.4697 7.96002C69.843 7.69336 70.243 7.58669 70.6697 7.64002C71.123 7.66669 71.4964 7.85336 71.7897 8.20002C72.083 8.52002 72.203 8.97336 72.1497 9.56002C72.3897 9.29336 72.763 9.26669 73.2697 9.48002C73.7764 9.69336 74.283 10.0267 74.7897 10.48C75.2964 10.9067 75.683 11.36 75.9497 11.84C76.2164 12.32 76.243 12.6934 76.0297 12.96C76.5097 12.8534 76.9097 13 77.2297 13.4C77.5764 13.8 77.8164 14.3067 77.9497 14.92C78.083 15.5067 78.0697 16.0534 77.9097 16.56C77.7764 17.0667 77.4697 17.3734 76.9897 17.48C77.3897 17.48 77.683 17.6667 77.8697 18.04C78.083 18.4134 78.1764 18.8534 78.1497 19.36C78.1497 19.84 78.043 20.2667 77.8297 20.64C77.643 20.9867 77.3497 21.16 76.9497 21.16C77.483 21.32 77.8164 21.64 77.9497 22.12C78.1097 22.6 78.1097 23.12 77.9497 23.68C77.8164 24.24 77.563 24.6934 77.1897 25.04C76.8164 25.3867 76.363 25.48 75.8297 25.32C76.2564 25.6934 76.483 26.0934 76.5097 26.52C76.5364 26.92 76.4164 27.2667 76.1497 27.56C75.9097 27.8267 75.5764 27.9867 75.1497 28.04C74.7497 28.0667 74.3364 27.8934 73.9097 27.52C74.0164 27.92 73.8297 28.2934 73.3497 28.64C72.8697 28.96 72.283 29.2 71.5897 29.36C70.8964 29.52 70.2564 29.56 69.6697 29.48C69.083 29.4 68.7364 29.16 68.6297 28.76C68.443 29.16 68.123 29.3734 67.6697 29.4C67.243 29.4534 66.803 29.3734 66.3497 29.16C65.923 28.9467 65.5897 28.6667 65.3497 28.32C65.2164 28.56 65.0297 28.7467 64.7897 28.88C64.5497 29.0134 64.283 29.0667 63.9897 29.04C64.2564 29.4667 64.403 30.0267 64.4297 30.72C64.4564 31.4134 64.363 32.0267 64.1497 32.56C63.963 33.12 63.643 33.4 63.1897 33.4C63.7764 33.3467 64.2297 33.4534 64.5497 33.72C64.8697 33.9867 65.043 34.3067 65.0697 34.68C65.0964 35.0534 64.9764 35.3867 64.7097 35.68C64.443 36 64.0164 36.1867 63.4297 36.24C63.3764 36.8267 63.1364 37.2 62.7097 37.36C62.3097 37.52 61.923 37.48 61.5497 37.24C61.1764 37.0267 61.0164 36.6267 61.0697 36.04C61.043 36.4934 60.843 36.8267 60.4697 37.04C60.123 37.28 59.683 37.3734 59.1497 37.32C58.6164 37.2934 58.083 37.08 57.5497 36.68C57.0164 36.28 56.563 35.68 56.1897 34.88C55.843 34.08 55.6564 33.04 55.6297 31.76ZM68.8697 21.84C68.6297 21.8134 68.4564 21.6267 68.3497 21.28C68.243 20.9067 68.1897 20.48 68.1897 20C68.2164 19.52 68.283 19.08 68.3897 18.68C68.523 18.2534 68.6964 17.96 68.9097 17.8C68.6697 17.8 68.3897 17.6667 68.0697 17.4C67.7497 17.1067 67.4564 16.76 67.1897 16.36C66.923 15.96 66.7497 15.5867 66.6697 15.24C66.483 15.5334 66.2297 15.6934 65.9097 15.72C65.5897 15.72 65.323 15.5867 65.1097 15.32C65.0564 15.64 64.883 15.9467 64.5897 16.24C64.323 16.5067 64.043 16.6267 63.7497 16.6C63.9897 16.7867 64.0564 17.0134 63.9497 17.28C63.843 17.5467 63.5897 17.6534 63.1897 17.6C63.483 17.6 63.7097 17.7734 63.8697 18.12C64.0297 18.44 64.123 18.84 64.1497 19.32C64.203 19.7734 64.163 20.2 64.0297 20.6C63.923 21 63.7497 21.2534 63.5097 21.36C63.7764 21.3067 63.9764 21.4 64.1097 21.64C64.2697 21.88 64.3097 22.1067 64.2297 22.32C64.4964 22.1867 64.8697 22.1334 65.3497 22.16C65.8564 22.16 66.4164 22.16 67.0297 22.16C67.643 22.16 68.2564 22.0534 68.8697 21.84ZM87.475 28.48C87.315 29.2 87.075 29.64 86.755 29.8C86.435 29.96 86.1684 29.8934 85.955 29.6C85.7684 29.3067 85.755 28.8134 85.915 28.12C85.7284 28.52 85.4217 28.7467 84.995 28.8C84.5684 28.8267 84.1417 28.7467 83.715 28.56C83.315 28.3467 82.995 28.0667 82.755 27.72C82.5417 27.3467 82.5284 26.9467 82.715 26.52C82.2884 26.3867 82.0084 26.16 81.875 25.84C81.7684 25.4934 81.7684 25.16 81.875 24.84C82.0084 24.4934 82.2217 24.2267 82.515 24.04C82.835 23.8534 83.2084 23.84 83.635 24C83.635 23.6 83.795 23.3067 84.115 23.12C84.435 22.9067 84.795 22.8 85.195 22.8C85.6217 22.8 85.995 22.9067 86.315 23.12C86.635 23.3067 86.795 23.6 86.795 24C86.875 23.6 87.155 23.32 87.635 23.16C88.115 23 88.675 22.9467 89.315 23C89.955 23.0534 90.5284 23.2 91.035 23.44C91.0617 23.2534 91.1417 23.1067 91.275 23C91.1417 22.76 91.1417 22.4667 91.275 22.12C90.9817 22.36 90.555 22.48 89.995 22.48C89.435 22.48 88.8617 22.3867 88.275 22.2C87.715 22.0134 87.2617 21.76 86.915 21.44C86.5684 21.12 86.435 20.7734 86.515 20.4C86.3284 20.9334 86.0617 21.24 85.715 21.32C85.3684 21.4 85.0884 21.3067 84.875 21.04C84.6617 20.7467 84.6484 20.32 84.835 19.76C84.5417 19.9734 84.195 19.9734 83.795 19.76C83.4217 19.52 83.035 19.1734 82.635 18.72C82.2617 18.2667 81.9417 17.7734 81.675 17.24C81.4084 16.7067 81.2484 16.2134 81.195 15.76C81.1417 15.3067 81.2617 14.9867 81.555 14.8C81.2617 14.64 81.1284 14.3467 81.155 13.92C81.2084 13.4934 81.355 13.0534 81.595 12.6C81.8617 12.1467 82.155 11.7867 82.475 11.52C82.8217 11.2534 83.1417 11.2 83.435 11.36C83.1684 10.9067 83.1417 10.5067 83.355 10.16C83.595 9.81336 83.915 9.62669 84.315 9.60002C84.715 9.54669 85.0617 9.74669 85.355 10.2C85.275 9.77336 85.395 9.40002 85.715 9.08002C86.0617 8.76002 86.5017 8.50669 87.035 8.32002C87.5684 8.13336 88.115 8.04002 88.675 8.04002C89.2617 8.01336 89.7684 8.09336 90.195 8.28002C90.6217 8.46669 90.875 8.77336 90.955 9.20002C91.0084 8.69336 91.2084 8.34669 91.555 8.16002C91.9284 7.94669 92.315 7.86669 92.715 7.92002C93.1417 7.97336 93.5017 8.14669 93.795 8.44002C94.0884 8.73336 94.195 9.12002 94.115 9.60002C94.275 9.09336 94.5017 8.80002 94.795 8.72002C95.115 8.61336 95.3817 8.68002 95.595 8.92002C95.8084 9.16002 95.835 9.53336 95.675 10.04C95.8884 9.64002 96.2217 9.44002 96.675 9.44002C97.1284 9.44002 97.5684 9.56002 97.995 9.80002C98.4484 10.04 98.7817 10.36 98.995 10.76C99.235 11.16 99.235 11.56 98.995 11.96C99.6084 12.1467 99.955 12.44 100.035 12.84C100.142 13.24 100.035 13.5867 99.715 13.88C99.4217 14.1467 98.9817 14.1867 98.395 14C98.395 14.48 98.2084 14.84 97.835 15.08C97.4617 15.2934 97.035 15.4 96.555 15.4C96.075 15.4 95.6484 15.2934 95.275 15.08C94.9284 14.84 94.755 14.48 94.755 14C94.675 14.32 94.435 14.5334 94.035 14.64C93.6617 14.7467 93.2217 14.7734 92.715 14.72C92.2084 14.64 91.7284 14.5067 91.275 14.32C91.3017 14.6667 91.1817 14.9867 90.915 15.28C91.5017 15.4134 92.0484 15.6534 92.555 16C93.0617 16.3467 93.2484 16.6934 93.115 17.04C93.195 16.6667 93.4217 16.4134 93.795 16.28C94.1684 16.1467 94.5684 16.1334 94.995 16.24C95.4217 16.32 95.7817 16.4934 96.075 16.76C96.3684 17.0267 96.475 17.3467 96.395 17.72C96.5817 17.5067 96.875 17.4667 97.275 17.6C97.7017 17.7067 98.1417 17.9334 98.595 18.28C99.075 18.6 99.515 18.9734 99.915 19.4C100.315 19.8 100.608 20.2 100.795 20.6C100.982 20.9734 100.982 21.2667 100.795 21.48C101.355 21.4534 101.768 21.5734 102.035 21.84C102.302 22.1067 102.435 22.4134 102.435 22.76C102.462 23.1067 102.342 23.4134 102.075 23.68C101.835 23.9467 101.448 24.0934 100.915 24.12C101.235 24.36 101.355 24.6934 101.275 25.12C101.222 25.5467 101.035 25.96 100.715 26.36C100.422 26.76 100.075 27.0534 99.675 27.24C99.3017 27.4 98.9417 27.36 98.595 27.12C98.8084 27.6 98.8217 28.0134 98.635 28.36C98.4484 28.7067 98.1684 28.96 97.795 29.12C97.4217 29.28 97.035 29.2934 96.635 29.16C96.2617 29.0267 95.9817 28.7334 95.795 28.28C95.8484 28.76 95.6084 29.1467 95.075 29.44C94.5684 29.7334 93.8884 29.9067 93.035 29.96C92.1817 30.0134 91.2617 29.92 90.275 29.68C89.315 29.44 88.3817 29.04 87.475 28.48ZM109.452 32.36C109.026 32.1734 108.746 31.8934 108.612 31.52C108.506 31.1467 108.519 30.7734 108.652 30.4C108.786 30.0267 109.012 29.72 109.332 29.48C109.652 29.2667 110.012 29.2134 110.412 29.32C109.852 29.1067 109.532 28.84 109.452 28.52C109.399 28.2 109.532 27.96 109.852 27.8C109.532 27.6134 109.399 27.3334 109.452 26.96C109.506 26.5867 109.812 26.28 110.372 26.04C109.866 26.2534 109.412 26.2667 109.012 26.08C108.639 25.8667 108.359 25.56 108.172 25.16C108.012 24.7334 107.999 24.32 108.132 23.92C108.266 23.4934 108.586 23.1734 109.092 22.96C108.639 23.1467 108.226 23.12 107.852 22.88C107.479 22.64 107.199 22.2934 107.012 21.84C106.826 21.3867 106.772 20.9467 106.852 20.52C106.932 20.0934 107.199 19.7734 107.652 19.56C107.252 19.7467 106.852 19.64 106.452 19.24C106.052 18.84 105.719 18.3334 105.452 17.72C105.186 17.1067 105.052 16.52 105.052 15.96C105.052 15.4 105.252 15.04 105.652 14.88C105.252 15.04 104.852 14.9467 104.452 14.6C104.079 14.2534 103.759 13.7867 103.492 13.2C103.252 12.6134 103.132 12.0534 103.132 11.52C103.159 10.9867 103.372 10.64 103.772 10.48C102.972 10.1067 102.639 9.77336 102.772 9.48002C102.932 9.18669 103.412 9.22669 104.212 9.60002C104.212 9.06669 104.439 8.68002 104.892 8.44002C105.372 8.17336 105.919 8.04002 106.532 8.04002C107.172 8.04002 107.732 8.17336 108.212 8.44002C108.692 8.68002 108.932 9.06669 108.932 9.60002C109.199 9.09336 109.532 8.84002 109.932 8.84002C110.359 8.84002 110.679 9.01336 110.892 9.36002C111.106 9.70669 111.066 10.1334 110.772 10.64C111.412 10.4 111.879 10.3734 112.172 10.56C112.492 10.72 112.586 10.9734 112.452 11.32C112.319 11.64 111.932 11.9067 111.292 12.12C111.586 12.0134 111.892 12.12 112.212 12.44C112.532 12.76 112.812 13.1867 113.052 13.72C113.319 14.2267 113.519 14.7734 113.652 15.36C113.812 15.92 113.866 16.4267 113.812 16.88C113.786 17.3067 113.626 17.5734 113.332 17.68C113.599 17.6 113.852 17.6267 114.092 17.76C114.332 17.8934 114.546 18.0934 114.732 18.36C115.052 18.0134 115.479 17.9467 116.012 18.16C115.479 17.9734 115.172 17.7067 115.092 17.36C115.039 17.0134 115.146 16.7467 115.412 16.56C115.706 16.3467 116.106 16.3334 116.612 16.52C116.292 16.3867 116.106 16.0934 116.052 15.64C115.999 15.16 116.039 14.6267 116.172 14.04C116.332 13.4267 116.546 12.84 116.812 12.28C117.106 11.72 117.426 11.28 117.772 10.96C118.119 10.64 118.452 10.5467 118.772 10.68C118.639 10.2267 118.732 9.84002 119.052 9.52002C119.399 9.17336 119.826 8.93336 120.332 8.80002C120.866 8.66669 121.359 8.65336 121.812 8.76002C122.266 8.86669 122.559 9.14669 122.692 9.60002C122.692 9.06669 122.892 8.72002 123.292 8.56002C123.719 8.37336 124.146 8.37336 124.572 8.56002C124.999 8.72002 125.212 9.06669 125.212 9.60002C125.586 9.68002 125.812 9.96002 125.892 10.44C125.999 10.8934 125.986 11.4 125.852 11.96C125.746 12.52 125.546 12.9867 125.252 13.36C124.959 13.7334 124.626 13.88 124.252 13.8C124.812 14.04 125.132 14.44 125.212 15C125.292 15.5334 125.212 16.08 124.972 16.64C124.732 17.2 124.386 17.64 123.932 17.96C123.479 18.2534 122.972 18.28 122.412 18.04C122.946 18.28 123.226 18.6 123.252 19C123.306 19.3734 123.172 19.6934 122.852 19.96C122.559 20.2 122.146 20.2 121.612 19.96C121.986 20.12 122.172 20.4534 122.172 20.96C122.199 21.4667 122.092 21.9867 121.852 22.52C121.639 23.0534 121.346 23.4934 120.972 23.84C120.599 24.16 120.226 24.24 119.852 24.08C120.172 24.2134 120.346 24.5067 120.372 24.96C120.399 25.4134 120.319 25.9334 120.132 26.52C119.972 27.1067 119.746 27.6667 119.452 28.2C119.159 28.7067 118.826 29.1067 118.452 29.4C118.106 29.6934 117.772 29.7734 117.452 29.64C117.879 29.8267 118.106 30.16 118.132 30.64C118.186 31.12 118.092 31.6134 117.852 32.12C117.639 32.6534 117.332 33.08 116.932 33.4C116.559 33.72 116.159 33.7867 115.732 33.6C116.212 33.8934 116.492 34.24 116.572 34.64C116.679 35.04 116.626 35.4 116.412 35.72C116.226 36.04 115.932 36.24 115.532 36.32C115.132 36.4267 114.692 36.32 114.212 36C114.212 36.4267 113.972 36.7467 113.492 36.96C113.012 37.1734 112.452 37.28 111.812 37.28C111.172 37.28 110.612 37.1734 110.132 36.96C109.652 36.7467 109.412 36.4267 109.412 36C109.412 36.5867 109.332 37 109.172 37.24C109.039 37.48 108.919 37.4934 108.812 37.28C108.706 37.0667 108.679 36.56 108.732 35.76C108.812 34.9867 109.052 33.8534 109.452 32.36ZM133.383 27.72C133.17 27.9067 132.863 27.9067 132.463 27.72C132.063 27.5334 131.623 27.24 131.143 26.84C130.69 26.44 130.277 26 129.903 25.52C129.53 25.04 129.263 24.6 129.103 24.2C128.943 23.7734 128.97 23.4667 129.183 23.28C128.65 23.36 128.21 23.24 127.863 22.92C127.543 22.5734 127.343 22.16 127.263 21.68C127.21 21.2 127.277 20.76 127.463 20.36C127.677 19.9334 128.05 19.68 128.583 19.6C128.023 19.5734 127.61 19.3867 127.343 19.04C127.103 18.6667 126.983 18.2667 126.983 17.84C127.01 17.3867 127.17 17 127.463 16.68C127.783 16.3334 128.21 16.1734 128.743 16.2C128.077 16.0134 127.663 15.7467 127.503 15.4C127.37 15.0267 127.45 14.7334 127.743 14.52C128.063 14.3067 128.57 14.3067 129.263 14.52C128.837 14.2267 128.583 13.9067 128.503 13.56C128.423 13.2134 128.463 12.8934 128.623 12.6C128.81 12.3067 129.077 12.12 129.423 12.04C129.797 11.96 130.197 12.0534 130.623 12.32C130.463 12.0534 130.503 11.7467 130.743 11.4C130.983 11.0267 131.33 10.68 131.783 10.36C132.263 10.0134 132.77 9.73336 133.303 9.52002C133.837 9.30669 134.317 9.18669 134.743 9.16002C135.17 9.13336 135.463 9.26669 135.623 9.56002C135.597 9.16002 135.77 8.84002 136.143 8.60002C136.543 8.36002 137.01 8.22669 137.543 8.20002C138.077 8.14669 138.543 8.21336 138.943 8.40002C139.37 8.56002 139.61 8.82669 139.663 9.20002C139.77 8.64002 140.09 8.26669 140.623 8.08002C141.157 7.89336 141.73 7.86669 142.343 8.00002C142.957 8.13336 143.463 8.40002 143.863 8.80002C144.29 9.17336 144.45 9.64002 144.343 10.2C144.637 9.80002 145.063 9.65336 145.623 9.76002C146.183 9.86669 146.73 10.12 147.263 10.52C147.797 10.92 148.183 11.3867 148.423 11.92C148.69 12.4267 148.663 12.88 148.343 13.28C148.743 13.3067 149.037 13.4667 149.223 13.76C149.41 14.0534 149.49 14.3867 149.463 14.76C149.437 15.1067 149.317 15.4134 149.103 15.68C148.89 15.9467 148.583 16.0667 148.183 16.04C148.183 16.3867 148.01 16.6534 147.663 16.84C147.317 17 146.903 17.08 146.423 17.08C145.97 17.08 145.57 17 145.223 16.84C144.877 16.6534 144.703 16.3867 144.703 16.04C144.57 16.36 144.277 16.5467 143.823 16.6C143.397 16.6267 142.903 16.56 142.343 16.4C141.783 16.24 141.25 16.0267 140.743 15.76C140.263 15.4934 139.903 15.2 139.663 14.88C139.583 15.3067 139.317 15.68 138.863 16C138.41 16.2934 137.957 16.4134 137.503 16.36C137.69 16.6534 137.77 17.0134 137.743 17.44C137.717 17.8667 137.61 18.2534 137.423 18.6C137.237 18.9467 136.97 19.1467 136.623 19.2C137.21 19.2 137.623 19.4267 137.863 19.88C138.13 20.3334 138.197 20.7867 138.063 21.24C138.517 21.1867 138.957 21.28 139.383 21.52C139.81 21.7334 140.117 22.04 140.303 22.44C140.543 22.0134 140.93 21.72 141.463 21.56C142.023 21.3734 142.463 21.5067 142.783 21.96C142.783 21.5867 142.93 21.3067 143.223 21.12C143.543 20.9067 143.903 20.8 144.303 20.8C144.703 20.8 145.05 20.9067 145.343 21.12C145.637 21.3067 145.783 21.5867 145.783 21.96C145.783 21.64 145.943 21.4 146.263 21.24C146.61 21.0534 146.983 20.96 147.383 20.96C147.81 20.96 148.183 21.0534 148.503 21.24C148.823 21.4 148.983 21.64 148.983 21.96C149.303 22.04 149.49 22.2534 149.543 22.6C149.623 22.92 149.61 23.28 149.503 23.68C149.397 24.08 149.223 24.4134 148.983 24.68C148.77 24.92 148.503 24.9867 148.183 24.88C148.423 25.2267 148.397 25.64 148.103 26.12C147.81 26.5734 147.383 27 146.823 27.4C146.29 27.8 145.757 28.0667 145.223 28.2C144.69 28.3334 144.303 28.24 144.063 27.92C144.117 28.32 143.863 28.6667 143.303 28.96C142.77 29.2267 141.997 29.3867 140.983 29.44C139.97 29.4934 138.797 29.3867 137.463 29.12C136.157 28.8534 134.797 28.3867 133.383 27.72ZM154.026 28.64C153.36 28.6134 152.92 28.4 152.706 28C152.493 27.5734 152.506 27.1734 152.746 26.8C152.986 26.4 153.44 26.2134 154.106 26.24C153.44 26.24 152.986 26.08 152.746 25.76C152.533 25.44 152.533 25.12 152.746 24.8C152.986 24.48 153.44 24.32 154.106 24.32C153.626 24.32 153.253 24.1334 152.986 23.76C152.746 23.3867 152.626 22.96 152.626 22.48C152.626 22 152.746 21.5734 152.986 21.2C153.253 20.8267 153.626 20.64 154.106 20.64C153.626 20.64 153.253 20.52 152.986 20.28C152.746 20.0134 152.626 19.7067 152.626 19.36C152.626 19.0134 152.746 18.72 152.986 18.48C153.253 18.2134 153.626 18.08 154.106 18.08C153.76 18.08 153.48 17.88 153.266 17.48C153.08 17.08 152.946 16.5867 152.866 16C152.813 15.4134 152.813 14.8267 152.866 14.24C152.946 13.6534 153.08 13.16 153.266 12.76C153.48 12.36 153.76 12.16 154.106 12.16C153.6 12.16 153.213 12 152.946 11.68C152.68 11.36 152.546 10.9867 152.546 10.56C152.546 10.1334 152.68 9.76002 152.946 9.44002C153.213 9.12002 153.6 8.96002 154.106 8.96002C153.546 8.96002 153.12 8.77336 152.826 8.40002C152.56 8.02669 152.426 7.60002 152.426 7.12002C152.426 6.64002 152.56 6.21336 152.826 5.84002C153.12 5.46669 153.546 5.28002 154.106 5.28002C153.36 5.28002 152.853 5.09336 152.586 4.72002C152.346 4.34669 152.346 3.97336 152.586 3.60002C152.853 3.22669 153.36 3.04002 154.106 3.04002C154 2.64002 154.093 2.29336 154.386 2.00002C154.706 1.70669 155.093 1.49336 155.546 1.36002C156.026 1.20002 156.466 1.17336 156.866 1.28002C157.293 1.36002 157.573 1.60002 157.706 2.00002C157.706 1.52002 157.88 1.16002 158.226 0.920024C158.6 0.653356 159.026 0.520022 159.506 0.520022C159.986 0.520022 160.413 0.653356 160.786 0.920024C161.16 1.16002 161.346 1.52002 161.346 2.00002C161.746 1.94669 162.08 2.14669 162.346 2.60002C162.613 3.02669 162.786 3.54669 162.866 4.16002C162.973 4.77336 162.96 5.33336 162.826 5.84002C162.72 6.34669 162.466 6.62669 162.066 6.68002C162.706 6.57336 163.2 6.78669 163.546 7.32002C163.92 7.82669 164.12 8.40002 164.146 9.04002C164.546 8.93336 164.933 8.93336 165.306 9.04002C165.706 9.12002 165.973 9.37336 166.106 9.80002C166.053 9.37336 166.213 9.02669 166.586 8.76002C166.96 8.49336 167.4 8.33336 167.906 8.28002C168.44 8.20002 168.906 8.24002 169.306 8.40002C169.733 8.56002 169.986 8.84002 170.066 9.24002C170.226 8.60002 170.493 8.22669 170.866 8.12002C171.266 7.98669 171.6 8.06669 171.866 8.36002C172.16 8.65336 172.226 9.12002 172.066 9.76002C172.386 9.44002 172.76 9.32002 173.186 9.40002C173.64 9.48002 174.053 9.69336 174.426 10.04C174.8 10.36 175.04 10.7334 175.146 11.16C175.28 11.5867 175.2 11.9734 174.906 12.32C175.44 12.16 175.88 12.2 176.226 12.44C176.6 12.68 176.853 13.0267 176.986 13.48C177.146 13.9334 177.146 14.3734 176.986 14.8C176.853 15.2 176.52 15.4934 175.986 15.68C176.493 15.6534 176.88 15.9067 177.146 16.44C177.413 16.9467 177.546 17.5467 177.546 18.24C177.573 18.9067 177.466 19.5067 177.226 20.04C176.986 20.5467 176.613 20.8 176.106 20.8C176.56 20.8 176.893 21.04 177.106 21.52C177.32 21.9734 177.426 22.5067 177.426 23.12C177.426 23.7334 177.32 24.28 177.106 24.76C176.893 25.2134 176.56 25.44 176.106 25.44C176.773 25.44 177.213 25.6267 177.426 26C177.666 26.3734 177.666 26.7467 177.426 27.12C177.213 27.4934 176.773 27.68 176.106 27.68C176.213 28.24 176.066 28.7067 175.666 29.08C175.293 29.4267 174.826 29.64 174.266 29.72C173.706 29.8267 173.186 29.7734 172.706 29.56C172.253 29.3467 171.973 28.96 171.866 28.4C171.733 28.8534 171.44 29.1334 170.986 29.24C170.533 29.32 170.053 29.28 169.546 29.12C169.066 28.96 168.666 28.72 168.346 28.4C168.053 28.0534 167.973 27.6534 168.106 27.2C167.653 27.2 167.306 27.0267 167.066 26.68C166.853 26.3067 166.746 25.88 166.746 25.4C166.746 24.92 166.853 24.4934 167.066 24.12C167.306 23.7467 167.653 23.56 168.106 23.56C167.76 23.56 167.48 23.32 167.266 22.84C167.053 22.36 166.92 21.7867 166.866 21.12C166.84 20.4267 166.88 19.7734 166.986 19.16C167.12 18.5467 167.32 18.0934 167.586 17.8C167.106 17.88 166.613 17.7067 166.106 17.28C165.6 16.8267 165.266 16.3334 165.106 15.8C164.706 16.1734 164.24 16.32 163.706 16.24C163.84 16.5334 163.786 16.8134 163.546 17.08C163.306 17.3467 162.946 17.4267 162.466 17.32C162.813 17.5067 163.066 17.8934 163.226 18.48C163.386 19.04 163.44 19.6534 163.386 20.32C163.36 20.9867 163.226 21.5734 162.986 22.08C162.773 22.56 162.466 22.8 162.066 22.8C162.44 22.8 162.72 22.9867 162.906 23.36C163.093 23.7067 163.186 24.12 163.186 24.6C163.186 25.08 163.093 25.5067 162.906 25.88C162.72 26.2534 162.44 26.44 162.066 26.44C162.546 26.4134 162.866 26.5867 163.026 26.96C163.186 27.3067 163.2 27.6667 163.066 28.04C162.933 28.4134 162.626 28.6134 162.146 28.64C162.12 29.1467 161.84 29.5067 161.306 29.72C160.773 29.96 160.16 30.0534 159.466 30C158.773 29.9734 158.16 29.8267 157.626 29.56C157.12 29.2934 156.88 28.9067 156.906 28.4C156.906 28.96 156.76 29.3734 156.466 29.64C156.2 29.9334 155.88 30.08 155.506 30.08C155.16 30.1067 154.84 30 154.546 29.76C154.253 29.52 154.08 29.1467 154.026 28.64ZM187.849 28.48C187.716 28.88 187.462 29.1467 187.089 29.28C186.742 29.3867 186.369 29.3734 185.969 29.24C185.596 29.1067 185.289 28.8934 185.049 28.6C184.836 28.28 184.796 27.92 184.929 27.52C184.689 27.7334 184.369 27.7467 183.969 27.56C183.569 27.3734 183.156 27.08 182.729 26.68C182.329 26.28 181.969 25.84 181.649 25.36C181.356 24.8534 181.156 24.3867 181.049 23.96C180.969 23.5334 181.049 23.2267 181.289 23.04C180.569 23.1467 180.049 23.04 179.729 22.72C179.436 22.3734 179.382 22 179.569 21.6C179.756 21.1734 180.209 20.9067 180.929 20.8C180.529 20.8 180.222 20.6534 180.009 20.36C179.822 20.0667 179.716 19.7334 179.689 19.36C179.689 18.96 179.782 18.6134 179.969 18.32C180.182 18 180.489 17.84 180.889 17.84C180.462 17.76 180.169 17.52 180.009 17.12C179.876 16.72 179.849 16.2934 179.929 15.84C180.036 15.36 180.222 14.96 180.489 14.64C180.782 14.32 181.142 14.2 181.569 14.28C181.116 13.9867 180.862 13.64 180.809 13.24C180.756 12.84 180.822 12.4934 181.009 12.2C181.222 11.88 181.516 11.68 181.889 11.6C182.289 11.4934 182.716 11.5867 183.169 11.88C182.929 11.5334 182.862 11.2 182.969 10.88C183.076 10.5334 183.276 10.2667 183.569 10.08C183.862 9.86669 184.182 9.77336 184.529 9.80002C184.876 9.82669 185.169 10.0134 185.409 10.36C185.222 9.80002 185.236 9.38669 185.449 9.12002C185.662 8.82669 185.929 8.72002 186.249 8.80002C186.596 8.88002 186.876 9.20002 187.089 9.76002C187.009 9.33336 187.076 9.00002 187.289 8.76002C187.502 8.52002 187.769 8.37336 188.089 8.32002C188.436 8.24002 188.756 8.28002 189.049 8.44002C189.342 8.60002 189.529 8.88002 189.609 9.28002C189.609 8.88002 189.796 8.58669 190.169 8.40002C190.569 8.18669 191.022 8.08002 191.529 8.08002C192.036 8.08002 192.476 8.18669 192.849 8.40002C193.249 8.58669 193.449 8.88002 193.449 9.28002C193.556 8.72002 193.809 8.33336 194.209 8.12002C194.636 7.90669 195.076 7.85336 195.529 7.96002C195.982 8.04002 196.342 8.26669 196.609 8.64002C196.902 8.98669 196.996 9.45336 196.889 10.04C197.076 9.66669 197.342 9.46669 197.689 9.44002C198.062 9.41336 198.409 9.49336 198.729 9.68002C199.076 9.84002 199.316 10.08 199.449 10.4C199.609 10.72 199.582 11.0667 199.369 11.44C199.796 11.1467 200.222 11.0934 200.649 11.28C201.076 11.44 201.422 11.72 201.689 12.12C201.982 12.52 202.142 12.96 202.169 13.44C202.196 13.8934 201.996 14.2534 201.569 14.52C202.022 14.4934 202.396 14.6534 202.689 15C203.009 15.3467 203.236 15.8 203.369 16.36C203.529 16.8934 203.596 17.4534 203.569 18.04C203.542 18.6 203.409 19.08 203.169 19.48C202.956 19.88 202.622 20.1067 202.169 20.16C202.729 20.2667 203.102 20.5467 203.289 21C203.476 21.4267 203.516 21.9067 203.409 22.44C203.329 22.9467 203.102 23.3734 202.729 23.72C202.382 24.0667 201.942 24.1867 201.409 24.08C201.809 24.3467 202.022 24.6667 202.049 25.04C202.102 25.3867 202.022 25.7067 201.809 26C201.596 26.2934 201.316 26.4934 200.969 26.6C200.622 26.68 200.249 26.5867 199.849 26.32C200.089 26.6934 200.156 27.0534 200.049 27.4C199.942 27.72 199.729 27.9734 199.409 28.16C199.116 28.3467 198.782 28.4267 198.409 28.4C198.062 28.3734 197.782 28.1734 197.569 27.8C197.729 28.3067 197.649 28.7067 197.329 29C197.009 29.2934 196.636 29.4134 196.209 29.36C195.809 29.28 195.529 28.9734 195.369 28.44C195.476 29.08 195.356 29.52 195.009 29.76C194.662 30.0267 194.276 30.08 193.849 29.92C193.449 29.76 193.209 29.3734 193.129 28.76C193.182 29.9067 192.782 30.48 191.929 30.48C191.076 30.48 189.716 29.8134 187.849 28.48ZM194.169 22.2C193.876 22.1734 193.662 21.96 193.529 21.56C193.422 21.16 193.369 20.6934 193.369 20.16C193.396 19.6 193.476 19.1067 193.609 18.68C193.742 18.2534 193.942 18 194.209 17.92C193.942 17.92 193.676 17.7334 193.409 17.36C193.169 16.9867 192.969 16.56 192.809 16.08C192.676 15.5734 192.622 15.1334 192.649 14.76C192.409 14.9734 192.116 15.0534 191.769 15C191.422 14.9467 191.156 14.7734 190.969 14.48C190.942 14.6934 190.862 14.8267 190.729 14.88C190.596 14.9334 190.449 14.9067 190.289 14.8C190.369 15.1734 190.342 15.6134 190.209 16.12C190.102 16.6 189.929 17.0267 189.689 17.4C189.449 17.7734 189.182 17.96 188.889 17.96C189.209 18.04 189.409 18.2667 189.489 18.64C189.596 19.0134 189.582 19.3867 189.449 19.76C189.316 20.1067 189.076 20.28 188.729 20.28C189.022 20.2267 189.276 20.3867 189.489 20.76C189.729 21.1067 189.889 21.52 189.969 22C190.076 22.48 190.089 22.8934 190.009 23.24C190.382 23.0267 190.942 22.9067 191.689 22.88C192.436 22.8534 193.262 22.6267 194.169 22.2ZM212.553 28.48C212.393 29.2 212.153 29.64 211.833 29.8C211.513 29.96 211.246 29.8934 211.033 29.6C210.846 29.3067 210.833 28.8134 210.993 28.12C210.806 28.52 210.5 28.7467 210.073 28.8C209.646 28.8267 209.22 28.7467 208.793 28.56C208.393 28.3467 208.073 28.0667 207.833 27.72C207.62 27.3467 207.606 26.9467 207.793 26.52C207.366 26.3867 207.086 26.16 206.953 25.84C206.846 25.4934 206.846 25.16 206.953 24.84C207.086 24.4934 207.3 24.2267 207.593 24.04C207.913 23.8534 208.286 23.84 208.713 24C208.713 23.6 208.873 23.3067 209.193 23.12C209.513 22.9067 209.873 22.8 210.273 22.8C210.7 22.8 211.073 22.9067 211.393 23.12C211.713 23.3067 211.873 23.6 211.873 24C211.953 23.6 212.233 23.32 212.713 23.16C213.193 23 213.753 22.9467 214.393 23C215.033 23.0534 215.606 23.2 216.113 23.44C216.14 23.2534 216.22 23.1067 216.353 23C216.22 22.76 216.22 22.4667 216.353 22.12C216.06 22.36 215.633 22.48 215.073 22.48C214.513 22.48 213.94 22.3867 213.353 22.2C212.793 22.0134 212.34 21.76 211.993 21.44C211.646 21.12 211.513 20.7734 211.593 20.4C211.406 20.9334 211.14 21.24 210.793 21.32C210.446 21.4 210.166 21.3067 209.953 21.04C209.74 20.7467 209.726 20.32 209.913 19.76C209.62 19.9734 209.273 19.9734 208.873 19.76C208.5 19.52 208.113 19.1734 207.713 18.72C207.34 18.2667 207.02 17.7734 206.753 17.24C206.486 16.7067 206.326 16.2134 206.273 15.76C206.22 15.3067 206.34 14.9867 206.633 14.8C206.34 14.64 206.206 14.3467 206.233 13.92C206.286 13.4934 206.433 13.0534 206.673 12.6C206.94 12.1467 207.233 11.7867 207.553 11.52C207.9 11.2534 208.22 11.2 208.513 11.36C208.246 10.9067 208.22 10.5067 208.433 10.16C208.673 9.81336 208.993 9.62669 209.393 9.60002C209.793 9.54669 210.14 9.74669 210.433 10.2C210.353 9.77336 210.473 9.40002 210.793 9.08002C211.14 8.76002 211.58 8.50669 212.113 8.32002C212.646 8.13336 213.193 8.04002 213.753 8.04002C214.34 8.01336 214.846 8.09336 215.273 8.28002C215.7 8.46669 215.953 8.77336 216.033 9.20002C216.086 8.69336 216.286 8.34669 216.633 8.16002C217.006 7.94669 217.393 7.86669 217.793 7.92002C218.22 7.97336 218.58 8.14669 218.873 8.44002C219.166 8.73336 219.273 9.12002 219.193 9.60002C219.353 9.09336 219.58 8.80002 219.873 8.72002C220.193 8.61336 220.46 8.68002 220.673 8.92002C220.886 9.16002 220.913 9.53336 220.753 10.04C220.966 9.64002 221.3 9.44002 221.753 9.44002C222.206 9.44002 222.646 9.56002 223.073 9.80002C223.526 10.04 223.86 10.36 224.073 10.76C224.313 11.16 224.313 11.56 224.073 11.96C224.686 12.1467 225.033 12.44 225.113 12.84C225.22 13.24 225.113 13.5867 224.793 13.88C224.5 14.1467 224.06 14.1867 223.473 14C223.473 14.48 223.286 14.84 222.913 15.08C222.54 15.2934 222.113 15.4 221.633 15.4C221.153 15.4 220.726 15.2934 220.353 15.08C220.006 14.84 219.833 14.48 219.833 14C219.753 14.32 219.513 14.5334 219.113 14.64C218.74 14.7467 218.3 14.7734 217.793 14.72C217.286 14.64 216.806 14.5067 216.353 14.32C216.38 14.6667 216.26 14.9867 215.993 15.28C216.58 15.4134 217.126 15.6534 217.633 16C218.14 16.3467 218.326 16.6934 218.193 17.04C218.273 16.6667 218.5 16.4134 218.873 16.28C219.246 16.1467 219.646 16.1334 220.073 16.24C220.5 16.32 220.86 16.4934 221.153 16.76C221.446 17.0267 221.553 17.3467 221.473 17.72C221.66 17.5067 221.953 17.4667 222.353 17.6C222.78 17.7067 223.22 17.9334 223.673 18.28C224.153 18.6 224.593 18.9734 224.993 19.4C225.393 19.8 225.686 20.2 225.873 20.6C226.06 20.9734 226.06 21.2667 225.873 21.48C226.433 21.4534 226.846 21.5734 227.113 21.84C227.38 22.1067 227.513 22.4134 227.513 22.76C227.54 23.1067 227.42 23.4134 227.153 23.68C226.913 23.9467 226.526 24.0934 225.993 24.12C226.313 24.36 226.433 24.6934 226.353 25.12C226.3 25.5467 226.113 25.96 225.793 26.36C225.5 26.76 225.153 27.0534 224.753 27.24C224.38 27.4 224.02 27.36 223.673 27.12C223.886 27.6 223.9 28.0134 223.713 28.36C223.526 28.7067 223.246 28.96 222.873 29.12C222.5 29.28 222.113 29.2934 221.713 29.16C221.34 29.0267 221.06 28.7334 220.873 28.28C220.926 28.76 220.686 29.1467 220.153 29.44C219.646 29.7334 218.966 29.9067 218.113 29.96C217.26 30.0134 216.34 29.92 215.353 29.68C214.393 29.44 213.46 29.04 212.553 28.48Z" fill="currentColor"/>
</g>

</svg>
